# xmcd CD database file
#
# Track frame offsets:
#	150
#	26602
#	43669
#	56103
#	84722
#	109564
#	145500
#	171858
#	201559
#	216696
#	237269
#	261070
#	280674
#
# Disc length: 4025 seconds
#
# Revision: 0
# Processed by: cddbd v1.5.1PL2 Copyright (c) Steve Scherf et al.
# Submitted via: CDex 1.51
#
DISCID=c20fb70d
DTITLE=Squat - Recycled
DYEAR=2004
DGENRE=Jazz
TTITLE0=You Know What I Mean
TTITLE1=Veggie Cuban
TTITLE2=Rickshaw
TTITLE3=Joshua (edit)
TTITLE4=Slolam
TTITLE5=Joshua
TTITLE6=Just Kinda Waitin' Round
TTITLE7=Ol' 56
TTITLE8=Touch
TTITLE9=Walking the Monster Back Home (remix)
TTITLE10=Ahora
TTITLE11=Sunday (retrack)
TTITLE12=Song For Leila
EXTD=YEAR: 2004
EXTT0=
EXTT1=
EXTT2=
EXTT3=
EXTT4=
EXTT5=
EXTT6=
EXTT7=
EXTT8=
EXTT9=
EXTT10=
EXTT11=
EXTT12=
PLAYORDER=
